<svg width="32" height="29" viewBox="0 0 32 29" fill="none" xmlns="http://www.w3.org/2000/svg">
<path d="M11.2305 4.39941C12.7393 0.139962 18.8622 0.139962 20.3711 4.39941C21.1529 6.6058 23.2526 8.12012 25.6016 8.12012H26.3496C30.6142 8.12012 32.2889 13.6516 28.7402 16.0166C26.7145 17.3666 25.8754 19.9377 26.6865 22.2275C28.1186 26.2712 23.601 29.8376 20.0654 27.4814L19.0439 26.8008C17.0798 25.492 14.5217 25.492 12.5576 26.8008L11.5361 27.4814C8.00053 29.8376 3.48291 26.2712 4.91504 22.2275C5.72617 19.9377 4.88702 17.3666 2.86133 16.0166C-0.687439 13.6516 0.987355 8.12012 5.25195 8.12012H6C8.34892 8.12012 10.4487 6.60581 11.2305 4.39941Z" fill="#EEB61B" stroke="#BF8C00"/>
</svg>
